<svg xmlns="http://www.w3.org/2000/svg" width="1000" height="540" viewBox="0 0 1000 540" role="img" aria-labelledby="title desc"><title id="title">手机改三题，回电脑找同会话和v2</title><desc id="desc">手机发出要求后，怎样完成可签收的跨端闭环？。电脑端已准备：电脑在线，daemon运行，认证可用；记下机器、Workspace与会话；教案-v1.md原稿保留。手机到电脑的闭环：手机发计划，核必要写入范围；手机查看3道练习与教师答案；电脑同会话出现要求，v2能打开。原创教学示意，不是产品截图或实际模型输出。</desc><style>text{font-family:'PingFang SC','Microsoft YaHei',Arial,sans-serif}</style><rect x="0" y="0" width="1000" height="540" rx="20" fill="#eaf2ff" stroke="none"/><text x="30" y="52" font-size="32" fill="#255ba1" font-weight="750"><tspan x="30" dy="0">手机改三题，回电脑找同会话和v2</tspan></text><text x="31" y="84" font-size="18" fill="#617585" font-weight="500"><tspan x="31" dy="0">AI练习生 · 本课教学示意</tspan></text><rect x="28" y="105" width="332" height="340" rx="18" fill="#fff" stroke="#d7e4ed"/><rect x="48" y="130" width="58" height="43" rx="7" fill="#255ba1"/><path d="M71 140l17 12-17 12z" fill="white"/><text x="120" y="153" font-size="25" fill="#255ba1" font-weight="700"><tspan x="120" dy="0">电脑端已准备</tspan></text><rect x="47" y="183" width="292" height="245" rx="7" fill="#f8fafc" stroke="#e0e7f0"/><text x="64" y="220" font-size="24" fill="#263e52" font-weight="500"><tspan x="64" dy="0">电脑在线，daemon运行</tspan><tspan x="64" dy="32.400000000000006">，认证可用</tspan></text><text x="64" y="288.8" font-size="24" fill="#263e52" font-weight="500"><tspan x="64" dy="0">记下机器、Workspace与</tspan><tspan x="64" dy="32.400000000000006">会话</tspan></text><text x="64" y="357.6" font-size="24" fill="#263e52" font-weight="500"><tspan x="64" dy="0">教案-v1.md原稿保留</tspan></text><path d="M372 262h22m-8-8l8 8-8 8" stroke="#255ba1" stroke-width="4" fill="none"/><rect x="403" y="105" width="570" height="340" rx="18" fill="#fff" stroke="#d7e4ed"/><rect x="423" y="123" width="246" height="34" rx="8" fill="#255ba1" stroke="none"/><text x="435" y="147" font-size="18" fill="#fff" font-weight="700"><tspan x="435" dy="0">手机到电脑的闭环</tspan></text><rect x="425" y="177" width="164" height="154" rx="8" fill="#eaf2ff" stroke="none"/><path d="M437 315l48-40 34 25 32-18 26 33z" fill="#255ba1" opacity=".25"/><circle cx="470" cy="217" r="15" fill="#255ba1" opacity=".8"/><path d="M449 262q20-52 41 0" fill="#255ba1" opacity=".8"/><circle cx="539" cy="219" r="15" fill="#255ba1" opacity=".5"/><path d="M517 267q21-51 42 0" fill="#255ba1" opacity=".5"/><text x="435" y="199" font-size="17" fill="#255ba1" font-weight="700"><tspan x="435" dy="0">01</tspan></text><text x="433" y="353" font-size="21" fill="#263e52" font-weight="500"><tspan x="433" dy="0">手机发计划，核</tspan><tspan x="433" dy="28.35">必要写入范围</tspan></text><rect x="602" y="177" width="164" height="154" rx="8" fill="#eaf2ff" stroke="none"/><path d="M614 315l48-40 34 25 32-18 26 33z" fill="#255ba1" opacity=".25"/><circle cx="647" cy="217" r="15" fill="#255ba1" opacity=".8"/><path d="M626 262q20-52 41 0" fill="#255ba1" opacity=".8"/><circle cx="716" cy="219" r="15" fill="#255ba1" opacity=".5"/><path d="M694 267q21-51 42 0" fill="#255ba1" opacity=".5"/><text x="612" y="199" font-size="17" fill="#255ba1" font-weight="700"><tspan x="612" dy="0">02</tspan></text><text x="610" y="353" font-size="21" fill="#263e52" font-weight="500"><tspan x="610" dy="0">手机查看3道练</tspan><tspan x="610" dy="28.35">习与教师答案</tspan></text><rect x="779" y="177" width="164" height="154" rx="8" fill="#eaf2ff" stroke="none"/><path d="M791 315l48-40 34 25 32-18 26 33z" fill="#255ba1" opacity=".25"/><circle cx="824" cy="217" r="15" fill="#255ba1" opacity=".8"/><path d="M803 262q20-52 41 0" fill="#255ba1" opacity=".8"/><circle cx="893" cy="219" r="15" fill="#255ba1" opacity=".5"/><path d="M871 267q21-51 42 0" fill="#255ba1" opacity=".5"/><text x="789" y="199" font-size="17" fill="#255ba1" font-weight="700"><tspan x="789" dy="0">03</tspan></text><text x="787" y="353" font-size="21" fill="#263e52" font-weight="500"><tspan x="787" dy="0">电脑同会话出现</tspan><tspan x="787" dy="28.35">要求，v2能打</tspan><tspan x="787" dy="28.35">开</tspan></text><rect x="28" y="462" width="945" height="56" rx="10" fill="#fff" stroke="none"/><text x="48" y="498" font-size="24" fill="#255ba1" font-weight="650"><tspan x="48" dy="0">看清要求 → 按步骤试做 → 对照标准修改</tspan></text></svg>